name analog
datacolumns 19
datarows 31
range 0.6535000000000002 0.6685000000000002
endheader
time	ground_force_vx	ground_force_vy	ground_force_vz	ground_force_px	ground_force_py	ground_force_pz	l_ground_force_vx	l_ground_force_vy	l_ground_force_vz	l_ground_force_px	l_ground_force_py	l_ground_force_pz	ground_torque_x	ground_torque_y	ground_torque_z	l_ground_torque_x	l_ground_torque_y	l_ground_torque_z
0.6535000000000002	-0.0	-0.0	-0.0	-32.474788665771484	121.8455810546875	-748.6094970703125	-28.208419799804688	-128.18634033203125	-713.3294067382812	-0.0	-0.0	-0.0	-0.0	-0.0	-0.0	178006.96875	102673.859375	-27748.228515625
0.6540000000000001	-0.0	-0.0	-0.0	-33.099491119384766	123.0023422241211	-751.3472290039062	-27.26286125183105	-129.92120361328125	-720.998046875	-0.0	-0.0	-0.0	-0.0	-0.0	-0.0	179737.578125	103987.9296875	-27749.021484375
0.6545000000000002	-0.0	-0.0	-0.0	-33.96803665161133	123.50074005126952	-752.3876342773438	-27.471576690673828	-131.80581665039062	-727.740478515625	-0.0	-0.0	-0.0	-0.0	-0.0	-0.0	181386.390625	105431.4765625	-27798.916015625
0.6550000000000002	-0.0	-0.0	-0.0	-35.094139099121094	124.6590576171875	-754.7233276367188	-27.708635330200195	-132.86752319335938	-733.4575805664062	-0.0	-0.0	-0.0	-0.0	-0.0	-0.0	182463.21875	106545.28125	-28125.306640625
0.6555000000000002	-0.0	-0.0	-0.0	-36.51585388183594	125.25399780273438	-755.451904296875	-28.802814483642575	-133.8667755126953	-738.6906127929688	-0.0	-0.0	-0.0	-0.0	-0.0	-0.0	183577.6875	107764.109375	-28324.869140625
0.6560000000000001	-0.0	-0.0	-0.0	-38.20151138305664	125.25688934326172	-759.4505615234375	-30.043840408325195	-134.83755493164062	-742.0591430664062	-0.0	-0.0	-0.0	-0.0	-0.0	-0.0	184557.421875	108899.4375	-28869.134765625
0.6565000000000002	-0.0	-0.0	-0.0	-41.151344299316406	125.14241027832033	-758.6304931640625	-31.69947052001953	-135.13217163085938	-746.4879150390625	-0.0	-0.0	-0.0	-0.0	-0.0	-0.0	185435.46875	109875.8515625	-29255.919921875
0.6570000000000003	-0.0	-0.0	-0.0	-43.65250778198242	124.27281951904295	-758.9976196289062	-33.592559814453125	-134.51365661621094	-749.3961791992188	-0.0	-0.0	-0.0	-0.0	-0.0	-0.0	186305.421875	110954.25	-29890.255859375
0.6575000000000002	-0.0	-0.0	-0.0	-46.02532196044922	122.63249206542967	-760.1561279296875	-36.31245803833008	-133.51290893554688	-752.8864135742188	-0.0	-0.0	-0.0	-0.0	-0.0	-0.0	186780.5625	111580.390625	-30643.36328125
0.6580000000000001	-0.0	-0.0	-0.0	-48.54731750488281	121.80508422851562	-759.5774536132812	-39.56481552124024	-132.2470703125	-753.237060546875	-0.0	-0.0	-0.0	-0.0	-0.0	-0.0	187282.953125	112505.8671875	-31406.7421875
0.6585000000000002	-0.0	-0.0	-0.0	-50.85404586791992	119.92090606689452	-758.0365600585938	-42.610931396484375	-130.27476501464844	-755.6822509765625	-0.0	-0.0	-0.0	-0.0	-0.0	-0.0	188033.9375	113074.5625	-32100.5546875
0.6590000000000003	-0.0	-0.0	-0.0	-53.546043395996094	118.30860900878906	-757.2517700195312	-46.010498046875	-128.30262756347656	-756.1408081054688	-0.0	-0.0	-0.0	-0.0	-0.0	-0.0	188453.71875	113449.5	-32823.91015625
0.6595000000000002	-0.0	-0.0	-0.0	-55.73883056640625	116.02841186523438	-755.434326171875	-49.40996551513672	-125.27130889892578	-757.538330078125	-0.0	-0.0	-0.0	-0.0	-0.0	-0.0	188506.625	114075.8984375	-33498.1171875
0.6600000000000001	-0.0	-0.0	-0.0	-58.37648391723633	114.18986511230467	-751.5851440429688	-52.78127670288086	-122.5921401977539	-757.4284057617188	-0.0	-0.0	-0.0	-0.0	-0.0	-0.0	188666.640625	114238.4140625	-34379.90234375
0.6605000000000002	-0.0	-0.0	-0.0	-60.41879653930664	111.88675689697266	-748.1847534179688	-56.18209457397461	-119.76525115966795	-755.4490966796875	-0.0	-0.0	-0.0	-0.0	-0.0	-0.0	188464.640625	114614.3828125	-34866.296875
0.6610000000000003	-0.0	-0.0	-0.0	-62.30512619018555	109.57430267333984	-742.2532958984375	-58.96110534667969	-116.58462524414062	-754.0526733398438	-0.0	-0.0	-0.0	-0.0	-0.0	-0.0	188155.6875	114476.59375	-35500.16015625
0.6615000000000002	-0.0	-0.0	-0.0	-64.10405731201172	107.55239868164062	-736.4005737304688	-62.12532806396485	-114.05496978759766	-749.8682861328125	-0.0	-0.0	-0.0	-0.0	-0.0	-0.0	187617.703125	114322.140625	-35847.98828125
0.6620000000000001	-0.0	-0.0	-0.0	-65.39667510986328	105.98677825927734	-726.512451171875	-64.46212768554688	-111.20014190673828	-744.619873046875	-0.0	-0.0	-0.0	-0.0	-0.0	-0.0	186576.40625	113669.2265625	-36225.8984375
0.6625000000000002	-0.0	-0.0	-0.0	-65.8094711303711	104.13217163085938	-716.7564086914062	-65.46856689453125	-107.7830581665039	-737.1800537109375	-0.0	-0.0	-0.0	-0.0	-0.0	-0.0	184822.015625	112720.328125	-35987.984375
0.6630000000000003	-0.0	-0.0	-0.0	-66.27764129638672	102.59485626220705	-699.8925170898438	-65.35292053222656	-104.6363525390625	-727.54931640625	-0.0	-0.0	-0.0	-0.0	-0.0	-0.0	182042.53125	111365.109375	-35403.5859375
0.6635000000000002	-0.0	-0.0	-0.0	-66.59065246582031	100.06571197509766	-679.8084106445312	-64.0801773071289	-100.812255859375	-712.1557006835938	-0.0	-0.0	-0.0	-0.0	-0.0	-0.0	178652.984375	109148.1953125	-34710.546875
0.6640000000000001	-0.0	-0.0	-0.0	-63.39146423339844	97.09676361083984	-655.46435546875	-61.47887802124024	-96.86251068115234	-691.4517211914062	-0.0	-0.0	-0.0	-0.0	-0.0	-0.0	173756.0625	105870.9296875	-33133.328125
0.6645000000000002	-0.0	-0.0	-0.0	-58.70439529418945	94.99169921875	-624.3626708984375	-57.90447998046875	-93.03889465332033	-667.3816528320312	-0.0	-0.0	-0.0	-0.0	-0.0	-0.0	167541.765625	102341.3515625	-31333.25
0.6650000000000003	-0.0	-0.0	-0.0	-50.712100982666016	92.2288818359375	-582.3870849609375	-51.46297073364258	-88.35823822021484	-635.38525390625	-0.0	-0.0	-0.0	-0.0	-0.0	-0.0	158763.578125	97262.609375	-28598.53515625
0.6655000000000002	-0.0	-0.0	-0.0	-41.138275146484375	88.32059478759766	-536.25830078125	-43.85175704956055	-83.99392700195312	-596.0574340820312	-0.0	-0.0	-0.0	-0.0	-0.0	-0.0	148911.125	91214.9140625	-25654.478515625
0.6660000000000001	-0.0	-0.0	-0.0	-28.705167770385746	83.58374786376953	-476.5210876464844	-36.443809509277344	-78.4073257446289	-548.8140869140625	-0.0	-0.0	-0.0	-0.0	-0.0	-0.0	137188.9375	84368.1953125	-22436.7265625
0.6665000000000002	-0.0	-0.0	-0.0	-14.206289291381836	76.0149154663086	-405.3728332519531	-26.860559463500977	-70.48713684082031	-492.2424621582031	-0.0	-0.0	-0.0	-0.0	-0.0	-0.0	122767.7421875	75982.03125	-18504.044921875
0.6670000000000003	-0.0	-0.0	-0.0	1.1507474184036257	64.26473999023438	-323.2527160644531	-14.39189624786377	-61.23102951049805	-425.4738159179688	-0.0	-0.0	-0.0	-0.0	-0.0	-0.0	105185.0859375	66070.3125	-13707.8505859375
0.6675000000000002	-0.0	-0.0	-0.0	9.7363920211792	47.39250183105469	-238.0034027099609	-3.3854353427886963	-46.217376708984375	-342.3105163574219	-0.0	-0.0	-0.0	-0.0	-0.0	-0.0	83963.6875	54016.47265625	-8593.083984375
0.6680000000000001	-0.0	-0.0	-0.0	14.037814140319824	28.784578323364254	-165.4976348876953	4.282649517059326	-28.10134506225586	-254.53909301757807	-0.0	-0.0	-0.0	-0.0	-0.0	-0.0	61448.1640625	41142.1015625	-4113.51416015625
0.6685000000000002	-0.0	-0.0	-0.0	20.816967010498047	14.346220970153809	-93.83934020996094	6.915432929992676	-10.38968276977539	-176.90805053710938	-0.0	-0.0	-0.0	-0.0	-0.0	-0.0	42534.0546875	29568.87109375	-859.3182373046875
